<svg width="33" height="32" viewBox="0 0 33 32" fill="none" xmlns="http://www.w3.org/2000/svg">
<path fill-rule="evenodd" clip-rule="evenodd" d="M3.97817 2.50977L17.3181 15.5491L4.04221 28.7027C3.6548 28.4617 3.44711 27.9399 3.4436 27.2658C3.43693 25.9729 3.33124 5.45938 3.32328 3.92006C3.31958 3.18184 3.5939 2.73156 3.97817 2.50977Z" fill="#FCFCFC"/>
<path fill-rule="evenodd" clip-rule="evenodd" d="M21.7162 11.1906L5.49475 2.52716C5.3215 2.43457 5.12473 2.37821 4.92871 2.35303L17.869 15.002L21.7162 11.1906Z" fill="#FCFCFC"/>
<path fill-rule="evenodd" clip-rule="evenodd" d="M22.4386 19.4671L18.4258 15.5447L22.4345 11.5732L27.955 14.5212C29.315 15.2471 28.6193 16.1553 27.955 16.5112L22.4386 19.4671Z" fill="#FCFCFC"/>
<path fill-rule="evenodd" clip-rule="evenodd" d="M5.1416 28.706C5.2547 28.6643 5.37279 28.6118 5.49533 28.5447L21.7201 19.8517L17.8735 16.0918L5.1416 28.706Z" fill="#FCFCFC"/>
</svg>
