<svg width="33" height="32" viewBox="0 0 33 32" fill="none" xmlns="http://www.w3.org/2000/svg">
<path fill-rule="evenodd" clip-rule="evenodd" d="M22.6772 0C22.8834 1.87399 22.1407 3.72067 21.0553 5.07804C19.9227 6.4143 18.1108 7.43637 16.3461 7.30473C16.1151 5.50152 17.0093 3.58406 18.0102 2.41421C19.1416 1.08664 21.1062 0.0695452 22.6772 0ZM28.4542 10.8104C28.2573 10.928 24.9936 12.8759 25.0293 16.8486C25.0716 21.6459 29.2269 23.2318 29.2766 23.248C29.2517 23.3597 28.6258 25.5392 27.0672 27.7473C25.7658 29.6946 24.4022 31.5984 22.2363 31.6306C21.2063 31.655 20.5109 31.359 19.7862 31.0505C19.0307 30.7289 18.2433 30.3937 17.0118 30.3937C15.7062 30.3937 14.8838 30.74 14.0909 31.0738C13.4048 31.3627 12.7407 31.6423 11.8046 31.6803C9.7418 31.7561 8.16586 29.6039 6.81718 27.674C4.12106 23.736 2.02228 16.5766 4.83638 11.7047C6.19996 9.31533 8.6862 7.77664 11.3438 7.73566C12.5141 7.71174 13.6366 8.16275 14.6205 8.55812C15.373 8.86048 16.0445 9.13029 16.5945 9.13029C17.0776 9.13029 17.7302 8.87127 18.4909 8.56936C19.6896 8.09359 21.1567 7.51133 22.6511 7.6686C23.6732 7.69841 26.5817 8.07221 28.4582 10.8081L28.4542 10.8104Z" fill="#FCFCFC"/>
</svg>
