<svg width="70" height="40" viewBox="0 0 70 40" fill="none" xmlns="http://www.w3.org/2000/svg">
<path d="M56.3939 5.54438L55.6901 1.80859L41.873 4.53734L42.5336 8.24064L56.3939 5.54438Z" fill="#030303"/>
<path d="M19.6317 21.9923C19.6317 15.3545 15.8634 11.792 10.4167 11.792H6.2478V18.733H8.97655C11.2288 18.733 12.8639 19.9457 13.2538 21.7974C12.9614 23.2809 11.9002 24.223 10.0161 24.223H0.389648L1.42917 31.3805H9.94027C16.394 31.3805 19.5559 28.2511 19.6317 22.263V21.9923Z" fill="#030303"/>
<path d="M63.2593 12.2792V20.6929C63.2593 23.3783 62.1007 24.7751 59.935 24.7751C58.8088 24.7751 57.8559 24.6127 56.8489 24.2987C56.8922 23.8547 56.6757 23.3999 56.6757 22.956L56.9247 15.1596L50.7417 15.8742L50.7092 20.6929C50.7092 23.5407 49.6264 24.7751 47.3416 24.7751C46.3021 24.7751 44.3421 24.656 43.3459 24.2554C43.3892 23.8547 43.7791 23.4216 43.7791 23.021L44.4179 15.1596L38.1916 15.8742L38.17 20.6929C38.17 23.5407 37.0871 24.7751 34.8456 24.7751H34.0443C31.922 24.7751 30.2003 23.7356 29.8754 21.8515V15.1596L23.6491 15.9175L23.6599 30.1893C23.6599 33.6327 21.5376 34.9105 18.2891 34.9105L18.7114 39.9998C26.0313 39.9998 29.5289 37.6176 29.8429 31.348C29.8754 31.3696 29.9187 31.3913 29.9512 31.3913H34.9756C34.9864 31.3913 34.9864 31.3913 34.9864 31.3913C38.1158 31.3588 40.4656 30.525 42.0357 29.0307C43.9956 30.6333 45.9664 31.3913 47.9696 31.3913C50.6551 31.3913 52.8532 30.5467 54.4233 29.1498C56.6648 30.6766 58.8305 31.3913 61.072 31.3913C66.6053 31.3913 69.4856 28.4243 69.4856 22.9776V11.5537L63.2593 12.2792Z" fill="#030303"/>
<path d="M19.6318 19.004C19.6318 12.3662 15.8636 8.80371 10.4169 8.80371H6.24797V15.7447H8.97672C11.229 15.7447 12.8641 16.9575 13.2539 18.8091C12.9616 20.2926 11.9004 21.2347 10.0162 21.2347H0L0.963725 28.3922H9.94045C16.3942 28.3922 19.556 25.2628 19.6318 19.2747V19.004Z" fill="#70A972"/>
<path d="M63.2591 9.51838V17.932C63.2591 20.6175 62.1004 22.0143 59.9348 22.0143C58.8086 22.0143 57.8557 21.8519 56.8487 21.5379C56.892 21.0939 56.9245 20.6608 56.9245 20.2168V12.3987L50.6765 13.1242L50.7198 17.932C50.7198 20.7799 49.637 22.0143 47.3522 22.0143C46.3127 22.0143 45.3489 21.8086 44.3527 21.4079C44.396 21.0073 44.4285 20.6066 44.4285 20.206V12.3879L38.1372 13.1134L38.1806 17.9212C38.1806 20.7691 37.0977 22.0035 34.8562 22.0035H34.0549C31.9326 22.0035 30.2109 20.964 29.886 19.0798V12.3879L23.638 13.1459L23.6814 27.4068C23.6814 30.8503 21.3208 32.1388 18.0723 32.1388L18.5162 37.2282C25.8362 37.2282 29.5612 34.8459 29.8752 28.5763C29.9077 28.598 29.951 28.6196 29.9835 28.6196H35.0078C35.0187 28.6196 35.0187 28.6196 35.0187 28.6196C38.1481 28.5871 40.4978 27.7533 42.0679 26.259C44.0279 27.8616 45.9986 28.6196 48.0019 28.6196C50.6873 28.6196 52.8855 27.775 54.4556 26.3781C56.6971 27.9049 58.8628 28.6196 61.1042 28.6196C66.6375 28.6196 69.5179 25.6526 69.5179 20.206V8.80371L63.2591 9.51838Z" fill="#70A972"/>
<path d="M56.0587 3.73579L55.3548 0L41.4512 2.73958L42.1983 6.42122L56.0587 3.73579Z" fill="#70A972"/>
</svg>
