<svg width="544" height="543" viewBox="0 0 544 543" fill="none" xmlns="http://www.w3.org/2000/svg">
<rect opacity="0.5" x="45.3329" y="73.0112" width="191.832" height="183.242" rx="13.8386" stroke="#45B36B" stroke-width="2.86316"/>
<rect opacity="0.5" x="353.6" y="37.6981" width="129.796" height="134.568" rx="13.8386" stroke="#45B36B" stroke-width="2.86316"/>
<rect opacity="0.5" x="302.063" y="359.326" width="181.333" height="149.839" rx="13.8386" stroke="#45B36B" stroke-width="2.86316"/>
<rect opacity="0.5" x="125.502" y="336.421" width="83.986" height="92.5754" rx="13.8386" stroke="#45B36B" stroke-width="2.86316"/>
<circle cx="279.634" cy="257.684" r="152.702" fill="#45B36B"/>
<mask id="mask0_622_3712" style="mask-type:luminance" maskUnits="userSpaceOnUse" x="126" y="57" width="307" height="354">
<path fill-rule="evenodd" clip-rule="evenodd" d="M373.043 136.875C376.215 130.764 377.936 124.209 377.936 117.389C377.936 84.1824 337.13 57.2629 286.792 57.2629C236.455 57.2629 195.648 84.1824 195.648 117.389C195.648 121.37 196.235 125.26 197.354 129.024C155.001 156.166 126.933 203.647 126.933 257.685C126.933 342.019 195.3 410.386 279.634 410.386C363.969 410.386 432.336 342.019 432.336 257.685C432.336 208.533 409.114 164.806 373.043 136.875Z" fill="white"/>
</mask>
<g mask="url(#mask0_622_3712)">
</g>
<circle cx="127.887" cy="78.2603" r="61.0807" fill="#4A90E2"/>
<mask id="mask1_622_3712" style="mask-type:luminance" maskUnits="userSpaceOnUse" x="66" y="17" width="123" height="123">
<circle cx="127.887" cy="78.2603" r="61.0807" fill="white"/>
</mask>
<g mask="url(#mask1_622_3712)">
</g>
<circle cx="43.4246" cy="246.708" r="43.4246" fill="#F5A623"/>
<path fill-rule="evenodd" clip-rule="evenodd" d="M56.4139 229.597L61.4912 234.674C62.2165 235.399 62.2165 236.487 61.4912 237.213L59.8592 238.845L52.2432 231.229L53.8752 229.597C54.6005 228.871 55.6885 228.871 56.4139 229.597ZM31.9424 251.471L49.6367 233.776L57.3299 241.469L39.6356 259.164L31.9424 251.471ZM29.3952 254.077L25.7686 265.32L37.0112 261.693L29.3952 254.077Z" fill="#FCFCFC"/>
<circle cx="485.305" cy="166.54" r="39.607" fill="#4A90E2"/>
<mask id="mask2_622_3712" style="mask-type:luminance" maskUnits="userSpaceOnUse" x="445" y="126" width="80" height="81">
<circle cx="485.305" cy="166.54" r="39.607" fill="white"/>
</mask>
<g mask="url(#mask2_622_3712)">
</g>
<circle cx="301.108" cy="491.031" r="51.0596" fill="#F5A623"/>
<mask id="mask3_622_3712" style="mask-type:luminance" maskUnits="userSpaceOnUse" x="250" y="439" width="103" height="104">
<circle cx="301.108" cy="491.031" r="51.0596" fill="white"/>
</mask>
<g mask="url(#mask3_622_3712)">
</g>
<rect x="83.9863" y="390.344" width="80.1684" height="80.1684" rx="11.4526" fill="#70A972"/>
<path fill-rule="evenodd" clip-rule="evenodd" d="M124.07 414.203L146.976 425.417L144.271 426.741V438.038H141.584V428.057L124.07 436.631L101.165 425.417L124.07 414.203ZM109.246 432.373L124.07 439.63L138.896 432.372V441.953L124.071 448.56L109.246 441.953V432.373Z" fill="#FCFCFC"/>
<rect x="328.309" y="0.000213623" width="71.579" height="71.579" rx="11.4526" fill="#F5A623"/>
<path fill-rule="evenodd" clip-rule="evenodd" d="M372.773 18.1348H375.856C377.004 18.1371 377.934 19.0793 377.937 20.2424V52.298C377.936 52.8554 377.716 53.3897 377.326 53.7828C376.938 54.178 376.41 54.4006 375.86 54.4015H355.734C353.24 54.3947 351.221 52.3489 351.214 49.8233V22.7254C351.214 20.1949 353.236 18.1416 355.734 18.1348H366.07V28.7018C366.07 29.4442 366.807 29.8071 367.385 28.8791L369.421 25.5795L371.458 28.8791C372.032 29.8113 372.773 29.4442 372.773 28.7018V18.1348ZM356.606 48.9823L376.243 48.9575V47.3696C376.24 47.1701 376.081 47.0089 375.884 47.0066H355.734C354.188 47.0066 352.934 48.2761 352.934 49.8422C352.934 51.4083 354.188 52.6778 355.734 52.6778H375.884C375.978 52.678 376.069 52.641 376.137 52.5747C376.202 52.5061 376.239 52.4143 376.238 52.319L376.243 50.7187H356.606C356.132 50.6856 355.775 50.27 355.808 49.7906C355.837 49.3572 356.178 49.0122 356.606 48.9823Z" fill="#FCFCFC"/>
<rect x="434.245" y="325.446" width="109.754" height="109.754" rx="11.4526" fill="#70A972"/>
<path fill-rule="evenodd" clip-rule="evenodd" d="M468.398 356.942H468.403C473.502 356.954 482.777 358.137 487.603 365.926C487.799 366.244 487.903 366.627 487.903 367.036V401.409C482.023 395.242 473.499 394.18 468.412 394.167C467.205 394.164 466.223 393.182 466.223 391.978V359.132C466.223 358.545 466.452 357.993 466.867 357.578C467.277 357.168 467.82 356.942 468.398 356.942ZM512.977 359.132V391.978C512.977 393.182 511.995 394.164 510.788 394.167C505.701 394.18 497.177 395.242 491.297 401.409V367.036C491.297 366.627 491.401 366.244 491.597 365.927C496.424 358.138 505.698 356.954 510.797 356.942H510.802C511.379 356.942 511.923 357.168 512.333 357.578C512.748 357.993 512.977 358.545 512.977 359.132ZM517.955 364.516H516.37V391.977C516.37 395.052 513.87 397.56 510.797 397.567C506.481 397.578 499.366 398.423 494.326 403.203C503.042 401.065 512.23 402.455 517.466 403.65C518.119 403.8 518.795 403.646 519.319 403.227C519.841 402.81 520.14 402.186 520.14 401.516V366.706C520.14 365.498 519.16 364.516 517.955 364.516ZM462.83 364.516V391.977C462.83 395.052 465.33 397.56 468.403 397.567C472.719 397.578 479.834 398.423 484.873 403.202C476.158 401.064 466.97 402.454 461.734 403.65C461.079 403.799 460.404 403.645 459.881 403.227C459.359 402.809 459.06 402.186 459.06 401.516V366.706C459.06 365.498 460.04 364.516 461.245 364.516H462.83Z" fill="#FCFCFC"/>
</svg>
